<?xml version="1.0" encoding="UTF-8"?>

<svg version="1.2" baseProfile="tiny" width="100mm" height="100mm" viewBox="0 0 10000 10000" preserveAspectRatio="xMidYMid" fill-rule="evenodd" clip-path="url(#presentation_clip_path)" stroke-width="28.222" stroke-linejoin="round" xmlns="http://www.w3.org/2000/svg" xmlns:ooo="http://xml.openoffice.org/svg/export" xmlns:xlink="http://www.w3.org/1999/xlink" xml:space="preserve">
 <defs class="ClipPathGroup">
  <clipPath id="presentation_clip_path" clipPathUnits="userSpaceOnUse">
   <rect x="0" y="0" width="10000" height="10000"/>
  </clipPath>
 </defs>
 <defs class="TextShapeIndex">
  <g ooo:slide="id1" ooo:id-list="id3"/>
 </defs>
 <defs class="EmbeddedBulletChars">
  <g id="bullet-char-template(57356)" transform="scale(0.00048828125,-0.00048828125)">
   <path d="M 580,1141 L 1163,571 580,0 -4,571 580,1141 Z"/>
  </g>
  <g id="bullet-char-template(57354)" transform="scale(0.00048828125,-0.00048828125)">
   <path d="M 8,1128 L 1137,1128 1137,0 8,0 8,1128 Z"/>
  </g>
  <g id="bullet-char-template(10146)" transform="scale(0.00048828125,-0.00048828125)">
   <path d="M 174,0 L 602,739 174,1481 1456,739 174,0 Z M 1358,739 L 309,1346 659,739 1358,739 Z"/>
  </g>
  <g id="bullet-char-template(10132)" transform="scale(0.00048828125,-0.00048828125)">
   <path d="M 2015,739 L 1276,0 717,0 1260,543 174,543 174,936 1260,936 717,1481 1274,1481 2015,739 Z"/>
  </g>
  <g id="bullet-char-template(10007)" transform="scale(0.00048828125,-0.00048828125)">
   <path d="M 0,-2 C -7,14 -16,27 -25,37 L 356,567 C 262,823 215,952 215,954 215,979 228,992 255,992 264,992 276,990 289,987 310,991 331,999 354,1012 L 381,999 492,748 772,1049 836,1024 860,1049 C 881,1039 901,1025 922,1006 886,937 835,863 770,784 769,783 710,716 594,584 L 774,223 C 774,196 753,168 711,139 L 727,119 C 717,90 699,76 672,76 641,76 570,178 457,381 L 164,-76 C 142,-110 111,-127 72,-127 30,-127 9,-110 8,-76 1,-67 -2,-52 -2,-32 -2,-23 -1,-13 0,-2 Z"/>
  </g>
  <g id="bullet-char-template(10004)" transform="scale(0.00048828125,-0.00048828125)">
   <path d="M 285,-33 C 182,-33 111,30 74,156 52,228 41,333 41,471 41,549 55,616 82,672 116,743 169,778 240,778 293,778 328,747 346,684 L 369,508 C 377,444 397,411 428,410 L 1163,1116 C 1174,1127 1196,1133 1229,1133 1271,1133 1292,1118 1292,1087 L 1292,965 C 1292,929 1282,901 1262,881 L 442,47 C 390,-6 338,-33 285,-33 Z"/>
  </g>
  <g id="bullet-char-template(9679)" transform="scale(0.00048828125,-0.00048828125)">
   <path d="M 813,0 C 632,0 489,54 383,161 276,268 223,411 223,592 223,773 276,916 383,1023 489,1130 632,1184 813,1184 992,1184 1136,1130 1245,1023 1353,916 1407,772 1407,592 1407,412 1353,268 1245,161 1136,54 992,0 813,0 Z"/>
  </g>
  <g id="bullet-char-template(8226)" transform="scale(0.00048828125,-0.00048828125)">
   <path d="M 346,457 C 273,457 209,483 155,535 101,586 74,649 74,723 74,796 101,859 155,911 209,963 273,989 346,989 419,989 480,963 531,910 582,859 608,796 608,723 608,648 583,586 532,535 482,483 420,457 346,457 Z"/>
  </g>
  <g id="bullet-char-template(8211)" transform="scale(0.00048828125,-0.00048828125)">
   <path d="M -4,459 L 1135,459 1135,606 -4,606 -4,459 Z"/>
  </g>
 </defs>
 <defs class="TextEmbeddedBitmaps"/>
 <g>
  <g id="id2" class="Master_Slide">
   <g id="bg-id2" class="Background"/>
   <g id="bo-id2" class="BackgroundObjects"/>
  </g>
 </g>
 <g class="SlideGroup">
  <g>
   <g id="id1" class="Slide" clip-path="url(#presentation_clip_path)">
    <g class="Page">
     <g class="com.sun.star.drawing.ClosedBezierShape">
      <g id="id3">
       <path fill="rgb(0,0,0)" stroke="none" d="M 6235,7448 L 6264,7216 C 6297,7197 6420,7169 6501,7150 6553,7145 6577,7097 6510,7036 5842,6410 4713,5386 4519,5191 4343,5021 4239,4973 4187,4959 L 4187,4760 C 4249,4732 4358,4641 4528,4509 4984,4134 5861,3385 6377,2868 6501,2750 6501,2674 6444,2674 6311,2664 6178,2650 5998,2636 L 5993,2418 C 5998,2380 6008,2370 6041,2366 6643,2370 7312,2351 7605,2342 6927,1654 5984,1223 4941,1223 2869,1223 1200,2901 1200,4964 1200,5452 1290,5917 1461,6339 1437,6249 1428,6159 1428,6078 L 1428,6073 C 1428,5732 1537,5334 1940,4959 2186,4736 2679,4480 3011,4480 3172,4480 3409,4513 3500,4547 3528,4556 3575,4532 3575,4494 3585,4395 3590,4262 3590,4011 3599,3437 3585,3214 3571,3072 3561,2977 3547,2939 3229,2897 3191,2892 3182,2863 3172,2845 L 3158,2788 C 3153,2759 3153,2745 3172,2740 3500,2607 3732,2498 3988,2347 4007,2332 4064,2323 4078,2323 4106,2332 4125,2380 4125,2437 4121,3072 4083,4494 4083,5301 L 4083,6149 C 4083,6372 4092,6713 4125,6889 4140,6979 4173,6993 4215,6993 4291,6993 4453,6927 4528,6894 4566,6879 4599,6879 4604,6908 4628,6969 4642,7055 4642,7112 4642,7164 4599,7173 4557,7178 4343,7249 3793,7372 3722,7372 3665,7372 3604,7311 3590,7235 3585,7131 3575,6969 3575,6889 3049,7145 2632,7306 2542,7306 2253,7306 1978,7131 1816,6984 1788,6960 1764,6927 1736,6898 2390,7979 3580,8700 4941,8700 6046,8700 7037,8221 7719,7458 7349,7444 6927,7444 6235,7448 Z M 7767,2522 C 7757,2570 7743,2584 7719,2584 7259,2660 7070,2797 6842,2963 6392,3290 5908,3665 4922,4528 4874,4566 4851,4627 4898,4675 5377,5191 6249,5926 6913,6543 7354,6950 7572,7112 7733,7150 7809,7164 7876,7183 7937,7192 8127,6941 8283,6661 8402,6363 8269,6358 8132,6358 7985,6358 L 7383,6358 C 7150,6358 7013,6358 6918,6367 6913,6363 6890,6348 6890,6315 6890,6301 6913,6287 6937,6268 7127,6144 7264,6002 7572,5666 7847,5372 8170,4969 8170,4523 8170,4144 7985,3911 7648,3911 7402,3911 7221,4087 7108,4329 7070,4352 7008,4329 7008,4276 7141,3911 7468,3688 7847,3688 8260,3688 8535,3968 8535,4366 8535,4627 8411,4912 8089,5286 L 7833,5575 C 7492,5969 7454,6035 7454,6059 7454,6088 7473,6097 7582,6097 L 8099,6097 C 8293,6097 8416,6073 8492,6007 8511,5988 8525,5974 8540,5955 8630,5642 8677,5310 8677,4964 8677,4035 8331,3181 7767,2522 Z M 2907,6875 C 3049,6875 3362,6794 3471,6718 3533,6675 3556,6666 3561,6614 3590,6315 3590,5424 3556,5172 3542,5106 3542,5068 3438,5007 3243,4869 2978,4798 2698,4798 L 2694,4798 C 2589,4798 2352,4860 2205,5016 2068,5149 1954,5391 1954,5675 1954,5850 1978,6344 2338,6666 2551,6851 2736,6875 2907,6875 Z"/>
      </g>
     </g>
    </g>
   </g>
  </g>
 </g>
</svg>